<svg width="62" height="68" viewBox="0 0 62 68" fill="none" xmlns="http://www.w3.org/2000/svg">
<g filter="url(#filter0_d)">
<path d="M41.4118 54C45.0504 54 48 50.5675 48 46.3333C48 42.0992 45.0504 38.6667 41.4118 38.6667C37.7732 38.6667 34.8235 42.0992 34.8235 46.3333C34.8235 50.5675 37.7732 54 41.4118 54Z" stroke="#CDCDCD" stroke-width="6" stroke-linecap="round" stroke-linejoin="round"/>
<path d="M14.8235 23.3333C18.5921 23.3333 21.6471 19.9009 21.6471 15.6667C21.6471 11.4325 18.5921 8 14.8235 8C11.055 8 8 11.4325 8 15.6667C8 19.9009 11.055 23.3333 14.8235 23.3333Z" stroke="#CDCDCD" stroke-width="6" stroke-linecap="round" stroke-linejoin="round"/>
<path d="M30.1177 15.6667H36.8941C38.0923 15.6667 39.2414 16.2052 40.0886 17.1637C40.9358 18.1222 41.4118 19.4222 41.4118 20.7778V38.6667" stroke="#CDCDCD" stroke-width="6" stroke-linecap="round" stroke-linejoin="round"/>
<path d="M15.0588 23.3333V54" stroke="#CDCDCD" stroke-width="6" stroke-linecap="round" stroke-linejoin="round"/>
</g>
<defs>
<filter id="filter0_d" x="0" y="0" width="62" height="68" filterUnits="userSpaceOnUse" color-interpolation-filters="sRGB">
<feFlood flood-opacity="0" result="BackgroundImageFix"/>
<feColorMatrix in="SourceAlpha" type="matrix" values="0 0 0 0 0 0 0 0 0 0 0 0 0 0 0 0 0 0 127 0"/>
<feMorphology radius="1" operator="dilate" in="SourceAlpha" result="effect1_dropShadow"/>
<feOffset dx="3" dy="3"/>
<feGaussianBlur stdDeviation="3.5"/>
<feColorMatrix type="matrix" values="0 0 0 0 0 0 0 0 0 0 0 0 0 0 0 0 0 0 0.29 0"/>
<feBlend mode="normal" in2="BackgroundImageFix" result="effect1_dropShadow"/>
<feBlend mode="normal" in="SourceGraphic" in2="effect1_dropShadow" result="shape"/>
</filter>
</defs>
</svg>
